<svg width="789" height="260" fill="none" xmlns="http://www.w3.org/2000/svg"><circle cx="200" cy="130" r="10" fill="#fff"/><circle cx="200" cy="200" r="10" fill="#fff"/><circle cx="130" cy="200" r="10" fill="#fff"/><circle cx="130" cy="130" r="20" fill="#fff"/><circle cx="60" cy="60" r="20" fill="#fff"/><circle cx="60" cy="130" r="20" fill="#fff"/><circle cx="130" cy="60" r="20" fill="#fff"/><circle cx="200" cy="60" r="20" fill="#fff"/><circle cx="60" cy="200" r="20" fill="#fff"/><path d="M409.06 101.546v16.84C401.272 106.441 388.811 99 372.261 99 345.197 99 323 121.519 323 150.5s22.197 51.5 49.261 51.5c16.55 0 29.011-7.441 36.799-19.386v16.84H426v-97.908h-16.94zm-34.657 84.005c-19.471 0-34.463-15.078-34.463-35.051 0-19.973 14.992-35.051 34.463-35.051 19.665 0 34.657 15.078 34.657 35.051 0 19.973-14.992 35.051-34.657 35.051zM497.739 99.718c-16.55 0-29.011 7.462-36.799 19.439V63H444v137.447h16.94v-16.886C468.728 195.539 481.189 203 497.739 203 524.803 203 547 180.419 547 151.359s-22.197-51.64-49.261-51.64zm-2.142 86.788c-19.665 0-34.657-15.119-34.657-35.147s14.992-35.147 34.657-35.147c19.471 0 34.463 15.119 34.463 35.147s-14.992 35.147-34.463 35.147zM577.185 118.271v-16.503H560V200h17.185v-52.063c0-23.183 16-30.648 30.815-30.059V100c-12.444 0-24.494 4.519-30.815 18.271zM639 200h-16v-98h16v98zM705.199 203c19.078 0 35.625-10.281 43.801-25.703l-14.406-8.502c-5.451 10.281-16.158 17.201-29.395 17.201-19.467 0-34.263-15.224-34.263-34.996 0-19.97 14.796-35.194 34.263-35.194 13.043 0 23.944 6.92 28.811 17.399l14.211-8.304C740.824 109.281 724.471 99 705.199 99 675.803 99 654 121.738 654 151s21.803 52 51.199 52zM319 76.647V60.174c-28.217-1.961-43.214 12.747-43.214 38.83v2.941H260v16.474h15.786V200h17.167v-81.581H319v-16.474h-26.047v-2.941c0-17.062 8.88-23.73 26.047-22.357z" fill="#fff"/><circle cx="631" cy="73" r="10" fill="#fff"/></svg>